<svg width="400" height="110" fill="none" xmlns="http://www.w3.org/2000/svg">
<circle cx="28" cy="5" r="5" fill="#0284C7"/>
<line x1="28.25" y1="10" x2="28.25" y2="14" stroke="#0284C7" stroke-width="0.5"/>
<line x1="27.5" y1="56" x2="27.5" y2="64" stroke="#0284C7"/>
<line x1="29.5" y1="56" x2="29.5" y2="64" stroke="#0284C7"/>
<line x1="36.5" y1="94" x2="36.5" y2="107" stroke="#0284C7"/>
<line x1="18.5" y1="94" x2="18.5" y2="107" stroke="#0284C7"/>
<path d="M40 20C40 24.4183 41.5 22.5 28 23C14 22.5 16 24.4183 16 20C16 15.5817 21.3726 14 28 14C34.6275 14 40 15.5817 40 20Z" fill="#0284C7"/>
<rect x="0.5" y="22.5" width="56" height="33" rx="4.5" fill="#0284C7" stroke="#0284C7"/>
<rect x="9" y="64" width="39" height="30" rx="5" fill="#0284C7"/>
<circle cx="13.5" cy="38.5" r="7" stroke="white"/>
<circle cx="42.5" cy="38.5" r="7" stroke="white"/>
<circle cx="41.5" cy="37.5" r="4" fill="white" stroke="white"/>
<circle cx="12.5" cy="37.5" r="4" fill="white" stroke="white"/>
<circle cx="18.5" cy="109.5" r="3.5" fill="#0284C7"/>
<circle cx="36.5" cy="109.5" r="3.5" fill="#0284C7"/>
<rect x="15" y="70" width="26" height="5" rx="2.5" fill="white"/>
<rect x="23" y="80" width="10" height="5" rx="2" fill="white"/>
<path d="M83.96 58V52.4H88.56V58H93.24V61.96H88.56V70.84C88.56 72.04 88.7867 72.88 89.24 73.36C89.6933 73.8133 90.28 74.0667 91 74.12C91.7467 74.1467 92.4933 74.1067 93.24 74V77.84C92.0933 78.08 90.96 78.1467 89.84 78.04C88.7467 77.96 87.76 77.6667 86.88 77.16C86 76.6267 85.2933 75.8533 84.76 74.84C84.2267 73.8267 83.96 72.4933 83.96 70.84V61.96H81.16V58H83.96ZM97.1331 49.2H101.653V59.84C102.293 59.2 103.08 58.6933 104.013 58.32C104.946 57.92 105.986 57.72 107.133 57.72C108.626 57.72 109.933 58.0533 111.053 58.72C112.2 59.36 113.08 60.32 113.693 61.6C114.333 62.8533 114.653 64.4267 114.653 66.32V78H109.973V66.92C109.973 65.24 109.626 63.9733 108.933 63.12C108.266 62.2667 107.253 61.84 105.893 61.84C104.506 61.84 103.453 62.28 102.733 63.16C102.013 64.04 101.653 65.32 101.653 67V78H97.1331V49.2ZM128.671 78.28C126.671 78.28 124.911 77.84 123.391 76.96C121.898 76.08 120.725 74.8533 119.871 73.28C119.045 71.7067 118.631 69.8933 118.631 67.84C118.631 65.8933 119.045 64.16 119.871 62.64C120.698 61.12 121.845 59.92 123.311 59.04C124.778 58.16 126.445 57.72 128.311 57.72C130.205 57.72 131.871 58.1333 133.311 58.96C134.751 59.7867 135.871 60.9467 136.671 62.44C137.498 63.9067 137.911 65.6133 137.911 67.56C137.911 67.88 137.898 68.2267 137.871 68.6C137.845 68.9467 137.805 69.32 137.751 69.72H123.511C123.645 70.6533 123.938 71.4667 124.391 72.16C124.871 72.8267 125.471 73.3467 126.191 73.72C126.911 74.0933 127.738 74.28 128.671 74.28C129.791 74.28 130.791 74.0533 131.671 73.6C132.578 73.1467 133.205 72.5467 133.551 71.8L137.511 73.12C136.711 74.72 135.525 75.9867 133.951 76.92C132.378 77.8267 130.618 78.28 128.671 78.28ZM132.991 66.04C132.965 65.2133 132.738 64.4667 132.311 63.8C131.885 63.1333 131.325 62.6133 130.631 62.24C129.938 61.84 129.165 61.64 128.311 61.64C127.565 61.64 126.858 61.8267 126.191 62.2C125.525 62.5733 124.951 63.0933 124.471 63.76C124.018 64.4 123.725 65.16 123.591 66.04H132.991ZM151.092 78.28C149.172 78.28 147.452 77.8667 145.932 77.04C144.412 76.1867 143.226 75 142.372 73.48C141.519 71.9333 141.092 70.12 141.092 68.04C141.092 65.9333 141.532 64.1067 142.412 62.56C143.292 61.0133 144.506 59.8267 146.052 59C147.599 58.1467 149.319 57.72 151.212 57.72C153.132 57.72 154.852 58.1467 156.372 59C157.919 59.8267 159.146 61.0133 160.052 62.56C160.959 64.08 161.412 65.88 161.412 67.96C161.412 70.0667 160.946 71.8933 160.012 73.44C159.106 74.9867 157.866 76.1867 156.292 77.04C154.746 77.8667 153.012 78.28 151.092 78.28ZM151.052 74.24C151.986 74.24 152.866 74.0133 153.692 73.56C154.546 73.1067 155.239 72.4267 155.772 71.52C156.306 70.5867 156.572 69.4 156.572 67.96C156.572 66.5733 156.319 65.4267 155.812 64.52C155.306 63.5867 154.639 62.8933 153.812 62.44C152.986 61.9867 152.092 61.76 151.132 61.76C150.199 61.76 149.332 61.9867 148.532 62.44C147.759 62.8933 147.132 63.5867 146.652 64.52C146.172 65.4267 145.932 66.6 145.932 68.04C145.932 69.4267 146.159 70.5867 146.612 71.52C147.092 72.4267 147.719 73.1067 148.492 73.56C149.266 74.0133 150.119 74.24 151.052 74.24ZM169.649 75.04L170.169 74.92V86H165.649V58H169.729L170.049 60.48C170.715 59.7067 171.582 59.0533 172.649 58.52C173.715 57.9867 175.009 57.72 176.529 57.72C178.262 57.72 179.795 58.1467 181.129 59C182.489 59.8533 183.542 61.0533 184.289 62.6C185.062 64.12 185.449 65.92 185.449 68C185.449 70.0533 185.062 71.8533 184.289 73.4C183.542 74.9467 182.502 76.1467 181.169 77C179.835 77.8533 178.289 78.28 176.529 78.28C174.929 78.28 173.542 77.9733 172.369 77.36C171.195 76.72 170.289 75.9467 169.649 75.04ZM180.609 68C180.609 66.16 180.115 64.6667 179.129 63.52C178.169 62.3733 176.929 61.8 175.409 61.8C174.449 61.8 173.569 62.04 172.769 62.52C171.995 63 171.369 63.6933 170.889 64.6C170.409 65.5067 170.169 66.64 170.169 68C170.169 69.3333 170.409 70.4667 170.889 71.4C171.369 72.3067 171.995 73 172.769 73.48C173.569 73.96 174.449 74.2 175.409 74.2C176.929 74.2 178.169 73.6267 179.129 72.48C180.115 71.3333 180.609 69.84 180.609 68ZM198.632 78.28C196.632 78.28 194.872 77.84 193.352 76.96C191.859 76.08 190.686 74.8533 189.832 73.28C189.006 71.7067 188.592 69.8933 188.592 67.84C188.592 65.8933 189.006 64.16 189.832 62.64C190.659 61.12 191.806 59.92 193.272 59.04C194.739 58.16 196.406 57.72 198.272 57.72C200.166 57.72 201.832 58.1333 203.272 58.96C204.712 59.7867 205.832 60.9467 206.632 62.44C207.459 63.9067 207.872 65.6133 207.872 67.56C207.872 67.88 207.859 68.2267 207.832 68.6C207.806 68.9467 207.766 69.32 207.712 69.72H193.472C193.606 70.6533 193.899 71.4667 194.352 72.16C194.832 72.8267 195.432 73.3467 196.152 73.72C196.872 74.0933 197.699 74.28 198.632 74.28C199.752 74.28 200.752 74.0533 201.632 73.6C202.539 73.1467 203.166 72.5467 203.512 71.8L207.472 73.12C206.672 74.72 205.486 75.9867 203.912 76.92C202.339 77.8267 200.579 78.28 198.632 78.28ZM202.952 66.04C202.926 65.2133 202.699 64.4667 202.272 63.8C201.846 63.1333 201.286 62.6133 200.592 62.24C199.899 61.84 199.126 61.64 198.272 61.64C197.526 61.64 196.819 61.8267 196.152 62.2C195.486 62.5733 194.912 63.0933 194.432 63.76C193.979 64.4 193.686 65.16 193.552 66.04H202.952ZM212.133 58H216.213L216.573 60.48C217.106 59.8133 217.733 59.2667 218.453 58.84C219.173 58.3867 219.946 58.08 220.773 57.92C221.626 57.76 222.48 57.7867 223.333 58V62.16C222.64 61.92 221.893 61.8667 221.093 62C220.32 62.1067 219.6 62.4 218.933 62.88C218.266 63.3333 217.72 63.9867 217.293 64.84C216.866 65.6667 216.653 66.6933 216.653 67.92V78H212.133V58ZM238.819 78L238.419 75.56C237.779 76.4133 237.019 77.0667 236.139 77.52C235.259 77.9733 234.085 78.2 232.619 78.2C231.232 78.2 230.032 77.9733 229.019 77.52C228.005 77.04 227.219 76.3867 226.659 75.56C226.125 74.7067 225.859 73.72 225.859 72.6C225.859 70.92 226.472 69.52 227.699 68.4C228.952 67.2533 230.779 66.5467 233.179 66.28L238.419 65.72V64.16C238.419 63.52 238.139 62.9467 237.579 62.44C237.019 61.9067 236.125 61.64 234.899 61.64C233.832 61.64 232.899 61.9067 232.099 62.44C231.325 62.9467 230.805 63.72 230.539 64.76L226.619 63.32C227.125 61.56 228.125 60.1867 229.619 59.2C231.139 58.2133 232.979 57.72 235.139 57.72C237.752 57.72 239.712 58.3733 241.019 59.68C242.325 60.9867 242.979 62.6533 242.979 64.68V78H238.819ZM238.419 69.2L233.619 69.8C232.605 69.9333 231.845 70.2267 231.339 70.68C230.832 71.1067 230.579 71.6533 230.579 72.32C230.579 72.9333 230.819 73.4667 231.299 73.92C231.805 74.3467 232.485 74.56 233.339 74.56C234.432 74.56 235.352 74.36 236.099 73.96C236.872 73.56 237.445 72.9867 237.819 72.24C238.219 71.4933 238.419 70.5733 238.419 69.48V69.2ZM249.273 58V52.4H253.873V58H258.553V61.96H253.873V70.84C253.873 72.04 254.099 72.88 254.553 73.36C255.006 73.8133 255.593 74.0667 256.313 74.12C257.059 74.1467 257.806 74.1067 258.553 74V77.84C257.406 78.08 256.273 78.1467 255.153 78.04C254.059 77.96 253.073 77.6667 252.193 77.16C251.313 76.6267 250.606 75.8533 250.073 74.84C249.539 73.8267 249.273 72.4933 249.273 70.84V61.96H246.473V58H249.273ZM271.366 78.28C269.446 78.28 267.726 77.8667 266.206 77.04C264.686 76.1867 263.499 75 262.646 73.48C261.792 71.9333 261.366 70.12 261.366 68.04C261.366 65.9333 261.806 64.1067 262.686 62.56C263.566 61.0133 264.779 59.8267 266.326 59C267.872 58.1467 269.592 57.72 271.486 57.72C273.406 57.72 275.126 58.1467 276.646 59C278.192 59.8267 279.419 61.0133 280.326 62.56C281.232 64.08 281.686 65.88 281.686 67.96C281.686 70.0667 281.219 71.8933 280.286 73.44C279.379 74.9867 278.139 76.1867 276.566 77.04C275.019 77.8667 273.286 78.28 271.366 78.28ZM271.326 74.24C272.259 74.24 273.139 74.0133 273.966 73.56C274.819 73.1067 275.512 72.4267 276.046 71.52C276.579 70.5867 276.846 69.4 276.846 67.96C276.846 66.5733 276.592 65.4267 276.086 64.52C275.579 63.5867 274.912 62.8933 274.086 62.44C273.259 61.9867 272.366 61.76 271.406 61.76C270.472 61.76 269.606 61.9867 268.806 62.44C268.032 62.8933 267.406 63.5867 266.926 64.52C266.446 65.4267 266.206 66.6 266.206 68.04C266.206 69.4267 266.432 70.5867 266.886 71.52C267.366 72.4267 267.992 73.1067 268.766 73.56C269.539 74.0133 270.392 74.24 271.326 74.24ZM285.922 58H290.002L290.362 60.48C290.896 59.8133 291.522 59.2667 292.242 58.84C292.962 58.3867 293.736 58.08 294.562 57.92C295.416 57.76 296.269 57.7867 297.122 58V62.16C296.429 61.92 295.682 61.8667 294.882 62C294.109 62.1067 293.389 62.4 292.722 62.88C292.056 63.3333 291.509 63.9867 291.082 64.84C290.656 65.6667 290.442 66.6933 290.442 67.92V78H285.922V58ZM303.208 78.28C302.354 78.28 301.634 78 301.048 77.44C300.488 76.8533 300.208 76.1333 300.208 75.28C300.208 74.4533 300.488 73.76 301.048 73.2C301.634 72.6133 302.354 72.32 303.208 72.32C304.034 72.32 304.741 72.6133 305.328 73.2C305.914 73.76 306.208 74.4533 306.208 75.28C306.208 76.1333 305.914 76.8533 305.328 77.44C304.741 78 304.034 78.28 303.208 78.28ZM322.998 78L322.598 75.56C321.958 76.4133 321.198 77.0667 320.318 77.52C319.438 77.9733 318.265 78.2 316.798 78.2C315.412 78.2 314.212 77.9733 313.198 77.52C312.185 77.04 311.398 76.3867 310.838 75.56C310.305 74.7067 310.038 73.72 310.038 72.6C310.038 70.92 310.652 69.52 311.878 68.4C313.132 67.2533 314.958 66.5467 317.358 66.28L322.598 65.72V64.16C322.598 63.52 322.318 62.9467 321.758 62.44C321.198 61.9067 320.305 61.64 319.078 61.64C318.012 61.64 317.078 61.9067 316.278 62.44C315.505 62.9467 314.985 63.72 314.718 64.76L310.798 63.32C311.305 61.56 312.305 60.1867 313.798 59.2C315.318 58.2133 317.158 57.72 319.318 57.72C321.932 57.72 323.892 58.3733 325.198 59.68C326.505 60.9867 327.158 62.6533 327.158 64.68V78H322.998ZM322.598 69.2L317.798 69.8C316.785 69.9333 316.025 70.2267 315.518 70.68C315.012 71.1067 314.758 71.6533 314.758 72.32C314.758 72.9333 314.998 73.4667 315.478 73.92C315.985 74.3467 316.665 74.56 317.518 74.56C318.612 74.56 319.532 74.36 320.278 73.96C321.052 73.56 321.625 72.9867 321.998 72.24C322.398 71.4933 322.598 70.5733 322.598 69.48V69.2ZM332.812 58H337.332V78H332.812V58ZM335.092 54.96C334.266 54.96 333.572 54.68 333.012 54.12C332.452 53.56 332.172 52.8933 332.172 52.12C332.172 51.2933 332.452 50.6 333.012 50.04C333.572 49.48 334.266 49.2 335.092 49.2C335.892 49.2 336.572 49.48 337.132 50.04C337.692 50.6 337.972 51.2933 337.972 52.12C337.972 52.8933 337.692 53.56 337.132 54.12C336.572 54.68 335.892 54.96 335.092 54.96Z" fill="black"/>
</svg>
