<svg viewBox="0 0 57 113" width="114" height="226" fill="none" xmlns="http://www.w3.org/2000/svg">
<circle cx="28" cy="5" r="5" fill="#0284C7"/>
<line x1="28.25" y1="10" x2="28.25" y2="14" stroke="#0284C7" stroke-width="0.5"/>
<line x1="27.5" y1="56" x2="27.5" y2="64" stroke="#0284C7"/>
<line x1="29.5" y1="56" x2="29.5" y2="64" stroke="#0284C7"/>
<line x1="36.5" y1="94" x2="36.5" y2="107" stroke="#0284C7"/>
<line x1="18.5" y1="94" x2="18.5" y2="107" stroke="#0284C7"/>
<path d="M40 20C40 24.4183 41.5 22.5 28 23C14 22.5 16 24.4183 16 20C16 15.5817 21.3726 14 28 14C34.6275 14 40 15.5817 40 20Z" fill="#0284C7"/>
<rect x="0.5" y="22.5" width="56" height="33" rx="4.5" fill="#0284C7" stroke="#0284C7"/>
<rect x="9" y="64" width="39" height="30" rx="5" fill="#0284C7"/>
<circle cx="13.5" cy="38.5" r="7" stroke="white"/>
<circle cx="42.5" cy="38.5" r="7" stroke="white"/>
<circle cx="41.5" cy="37.5" r="4" fill="white" stroke="white"/>
<circle cx="12.5" cy="37.5" r="4" fill="white" stroke="white"/>
<circle cx="18.5" cy="109.5" r="3.5" fill="#0284C7"/>
<circle cx="36.5" cy="109.5" r="3.5" fill="#0284C7"/>
<rect x="15" y="70" width="26" height="5" rx="2.5" fill="white"/>
<rect x="23" y="80" width="10" height="5" rx="2" fill="white"/>
</svg>